<svg xmlns="http://www.w3.org/2000/svg" viewBox="0 0 64 64" width="64" height="64">
  <defs>
    <radialGradient id="face" cx="50%" cy="42%" r="65%">
      <stop offset="0%" stop-color="#fff7fb"/>
      <stop offset="100%" stop-color="#ffd7ec"/>
    </radialGradient>
    <linearGradient id="glow" x1="0" y1="0" x2="1" y2="1">
      <stop offset="0%" stop-color="#7af5e6"/>
      <stop offset="100%" stop-color="#ff7ad1"/>
    </linearGradient>
  </defs>

  <circle cx="32" cy="33" r="27" fill="url(#glow)" opacity="0.28"/>

  <path d="M14 24 L17 7 L31 19 Z" fill="url(#face)" stroke="#3a2338" stroke-width="2.4" stroke-linejoin="round"/>
  <path d="M50 24 L47 7 L33 19 Z" fill="url(#face)" stroke="#3a2338" stroke-width="2.4" stroke-linejoin="round"/>
  <path d="M17.5 20 L19 11 L26 18 Z" fill="#ff9ecf"/>
  <path d="M46.5 20 L45 11 L38 18 Z" fill="#ff9ecf"/>

  <ellipse cx="32" cy="35" rx="22" ry="20" fill="url(#face)" stroke="#3a2338" stroke-width="2.6"/>

  <g>
    <ellipse cx="23" cy="35" rx="4.6" ry="6.2" fill="#3a2338"/>
    <ellipse cx="41" cy="35" rx="4.6" ry="6.2" fill="#3a2338"/>
    <circle cx="24.6" cy="32.6" r="1.7" fill="#fff"/>
    <circle cx="42.6" cy="32.6" r="1.7" fill="#fff"/>
    <circle cx="21.8" cy="37" r="0.9" fill="#fff" opacity="0.85"/>
    <circle cx="39.8" cy="37" r="0.9" fill="#fff" opacity="0.85"/>
  </g>

  <ellipse cx="18" cy="41" rx="3.4" ry="2" fill="#ff97c6" opacity="0.7"/>
  <ellipse cx="46" cy="41" rx="3.4" ry="2" fill="#ff97c6" opacity="0.7"/>

  <path d="M28 41 Q32 45 36 41" fill="none" stroke="#3a2338" stroke-width="2" stroke-linecap="round"/>
  <path d="M32 40 L32 42.6" stroke="#3a2338" stroke-width="1.6" stroke-linecap="round"/>

  <g stroke="#3a2338" stroke-width="1.4" stroke-linecap="round" opacity="0.8">
    <path d="M9 33 L16 34"/>
    <path d="M9 38 L16 38"/>
    <path d="M55 33 L48 34"/>
    <path d="M55 38 L48 38"/>
  </g>
</svg>
